<mxfile host="65bd71144e">
    <diagram id="znuuAv62DsaIikNwTlUW" name="Page-1">
        <mxGraphModel dx="832" dy="563" grid="0" gridSize="10" guides="1" tooltips="1" connect="1" arrows="1" fold="1" page="1" pageScale="1" pageWidth="850" pageHeight="1100" math="0" shadow="0">
            <root>
                <mxCell id="0"/>
                <mxCell id="1" parent="0"/>
                <mxCell id="2" value="" style="rounded=0;whiteSpace=wrap;html=1;" vertex="1" parent="1">
                    <mxGeometry x="170" y="320" width="420" height="133" as="geometry"/>
                </mxCell>
                <mxCell id="4" value="shipment_id" style="rounded=0;whiteSpace=wrap;html=1;" vertex="1" parent="1">
                    <mxGeometry x="180" y="330" width="380" height="30" as="geometry"/>
                </mxCell>
                <mxCell id="5" value="current_location" style="rounded=0;whiteSpace=wrap;html=1;" vertex="1" parent="1">
                    <mxGeometry x="180" y="385" width="140" height="30" as="geometry"/>
                </mxCell>
                <mxCell id="7" value="lat, long" style="rounded=0;whiteSpace=wrap;html=1;" vertex="1" parent="1">
                    <mxGeometry x="180" y="411" width="140" height="30" as="geometry"/>
                </mxCell>
                <mxCell id="8" value="" style="rounded=0;whiteSpace=wrap;html=1;" vertex="1" parent="1">
                    <mxGeometry x="170" y="491" width="420" height="123" as="geometry"/>
                </mxCell>
                <mxCell id="9" value="&lt;b&gt;&lt;font style=&quot;font-size: 20px;&quot;&gt;BC_71000_2024231104953578&lt;/font&gt;&lt;/b&gt;" style="rounded=0;whiteSpace=wrap;html=1;align=left;strokeColor=none;" vertex="1" parent="1">
                    <mxGeometry x="180" y="501" width="380" height="30" as="geometry"/>
                </mxCell>
                <mxCell id="11" value="Đang ở: Bưu cục quận 1" style="rounded=0;whiteSpace=wrap;html=1;strokeColor=none;align=left;" vertex="1" parent="1">
                    <mxGeometry x="180" y="552" width="213" height="30" as="geometry"/>
                </mxCell>
                <mxCell id="12" value="Kinh độ: 10.23456 Vĩ độ: 11.245678" style="rounded=0;whiteSpace=wrap;html=1;align=left;strokeColor=none;" vertex="1" parent="1">
                    <mxGeometry x="180" y="577" width="230" height="30" as="geometry"/>
                </mxCell>
            </root>
        </mxGraphModel>
    </diagram>
</mxfile>